<svg version="1.1" id="Layer_1" xmlns="http://www.w3.org/2000/svg" x="0" y="0" viewBox="0 0 206.3 154.6" style="enable-background:new 0 0 206.3 154.6" xml:space="preserve"><style>.st2{fill-rule:evenodd;clip-rule:evenodd;fill:#e24331}.st3{fill:#9fd6e4}.st4{fill-rule:evenodd;clip-rule:evenodd;fill:#dfdfdf}.st11{fill:none}.st12{fill:#fff}.st12,.st13{enable-background:new}</style><path d="M198.1 76c0-12.4-42.5-22.4-95-22.4s-95 10-95 22.4l.1 5.1h-.1s2.8 30.6 95 30.6 95-30.6 95-30.6h-.1l.1-5.1z" style="fill:#e24331"/><path d="M198.1 76c0-12.4-42.5-22.4-95-22.4s-95 10-95 22.4l.1 5.1h-.1s2.8 30.6 95 30.6 95-30.6 95-30.6h-.1l.1-5.1z" style="opacity:.1;fill:#231f20"/><path class="st2" d="M198.1 76c0 12.4-42.5 22.4-95 22.4s-95-10-95-22.4c0-12.4 42.5-22.4 95-22.4s95 10 95 22.4"/><path class="st3" d="M150.4 53.6c0-7.5-1.7-14.5-4.9-20.8-7.7-15.5-23.8-26.2-42.4-26.2-18.6 0-34.7 10.7-42.4 26.2-3.1 6.3-4.9 13.3-4.9 20.8 0 6.7 1.4 13 3.9 18.8l19.5-31.6c3.3-6.3 11.2-15.6 25.3-15.6 3.9 0 7.3.3 11 1.7V32s-10.4-3.4-17 2.8c-4.9 4.6-5.3 9.5-3 16.2 20.3-3.7 24.7 8.7 25.2 10.6 0 .1.1.2.1.2.7 4.8.7 9.1 0 13 9-.4 17.5-1.1 25.4-2 2.7-5.8 4.2-12.3 4.2-19.2z"/><path class="st4" d="m132.6 143.1 4.4-.9-8.5-39.8-4.4.9 8.5 39.8z"/><path class="st4" d="M139.9 139.8c1 2.8-.5 5.9-3.3 6.9s-5.9-.5-6.9-3.3.5-5.9 3.3-6.9c2.8-.9 5.9.5 6.9 3.3M82.1 103.4l-4.4-.9-8.5 39.8 4.4.9 8.5-39.8z"/><path class="st4" d="M65.8 140.3c.7-3.1 3.9-5 7-4.2 3.1.8 5 3.9 4.3 7-.7 3.1-3.9 5-7 4.2-3.1-.8-5-3.9-4.3-7"/><path class="st2" d="M198 81.1c-2.4 11.9-44 21.3-94.9 21.3-50.9 0-92.4-9.4-94.9-21.3h-.1s2.8 30.6 95 30.6 95-30.6 95-30.6h-.1z"/><path d="M69.3 36c-.2 0-.5-.1-.7-.2-.7-.4-1-1.3-.7-2 3.6-7.3 9.6-13.4 16.8-17.2.7-.4 1.6-.1 2 .6.4.7.1 1.6-.6 2-6.7 3.5-12.2 9.2-15.5 15.9-.2.6-.8.9-1.3.9z" style="fill:#d4f3fc" id="a_00000141425687335167485340000014125533151843822742_"/><path d="M83.1 74.8" style="fill-rule:evenodd;clip-rule:evenodd;fill:#9fd6e4"/><path d="M103.2 75.3h-.2.2c15.5 0 30.1-.9 43.1-2.4 2.4-5.2 3.8-11 4.1-17-.3 6-1.7 11.8-4.1 17-12.9 1.5-27.6 2.4-43.1 2.4m-.2 0h-.1.1M102.3 75.3" style="fill-rule:evenodd;clip-rule:evenodd;fill:#c7462f"/><path d="m145.1 32.7-.1-.2.1.2m-.1-.2c0-.1 0 0 0 0m0-.1" style="fill-rule:evenodd;clip-rule:evenodd;fill:#1d2533"/><path d="M39.8 71.7c0 2-3.6 3.6-8.1 3.6s-8.1-1.6-8.1-3.6 3.6-3.6 8.1-3.6 8.1 1.6 8.1 3.6m138.3 0c0 2-3.6 3.6-8.1 3.6s-8.1-1.6-8.1-3.6 3.6-3.6 8.1-3.6 8.1 1.6 8.1 3.6M66.8 82.9c0 2-3.6 3.6-8.1 3.6s-8.1-1.6-8.1-3.6 3.6-3.6 8.1-3.6 8.1 1.6 8.1 3.6m86.5 0c0 2-3.6 3.6-8.1 3.6s-8.1-1.6-8.1-3.6 3.6-3.6 8.1-3.6 8.1 1.6 8.1 3.6m-41.6 3.4c0 2-3.6 3.6-8.1 3.6s-8.1-1.6-8.1-3.6 3.6-3.6 8.1-3.6 8.1 1.6 8.1 3.6" style="fill-rule:evenodd;clip-rule:evenodd;fill:#fffffe"/><path id="a_00000172436148503303503570000002745284586450336655_" d="M145.5 32.8c-7.7-15.5-23.8-26.2-42.4-26.2S68.5 17.3 60.8 32.8C57.7 39.1 56 46.1 56 53.6c0 6.9 1.5 13.4 4.1 19.3 12.9 1.6 27.6 2.4 43.1 2.4s30.1-.9 43.1-2.4c2.7-5.9 4.2-12.4 4.2-19.3-.1-7.5-1.9-14.5-5-20.8" style="fill-rule:evenodd;clip-rule:evenodd;fill:none"/><path class="st11" d="M118.6 49.3v.1l3.4-3.8z"/><path class="st12" d="M98.6 34.8c-4.9 4.6-5.3 9.5-3 16.2 20.3-3.7 24.7 8.7 25.2 10.6h.1l-2.2-12h-.2l.2-.2v-.2l3.4-3.6 3.4-3.8.1.1c0-8.7-8.2-14.5-10-14.9v5s-10.4-3.4-17 2.8z"/><path class="st13" d="m118.6 49.4.1.2h15.5l-8.7-7.7-3.5 3.7z"/><path class="st13" d="M118.5 49.6h.2l-.1-.2z"/><path class="st3" d="M115.5 27z"/><path class="st13" d="M115.5 27zM122 45.6l3.5-3.7-.1-.1z"/><g><path class="st11" d="M115.5 27z"/><path class="st13" d="M120.8 61.9s0-.1-.1-.2c-.5-1.9-4.9-14.3-25.2-10.6-2.2-6.7-1.8-11.6 3-16.2 6.6-6.2 17-2.8 17-2.8V27c-3.7-1.4-7.1-1.7-11-1.7-14.1 0-21.9 9.3-25.3 15.6L59.9 72.4c.1.2.1.3.2.5 12.9 1.6 27.6 2.4 43.1 2.4.2-.7.5-1.4.7-2 .2-.6.3-1.3.5-1.9l.3-1.8c.1-.5.2-1.1.2-1.5.1-.4.1-.9.2-1.3.1-1.6.1-2.5.1-2.5l1.6.1s-.1 1-.2 2.6c-.1.4-.1.9-.2 1.3-.1.5-.1 1.1-.3 1.6-.1.5-.3 1.2-.4 1.8-.2.6-.4 1.2-.6 1.9-.2.5-.4 1-.6 1.6 5.6 0 11.1-.1 16.4-.4.6-3.8.7-8.1-.1-12.9zM115.5 27z"/><path class="st12" d="M105.6 71.8c.1-.6.3-1.2.4-1.8.2-.5.2-1.1.3-1.6.1-.4.1-.9.2-1.3.1-1.6.2-2.6.2-2.6l-1.6-.1s0 .9-.1 2.5c-.1.4-.1.9-.2 1.3 0 .4-.1 1-.2 1.5l-.3 1.8c-.2.5-.3 1.2-.5 1.9-.2.6-.5 1.3-.7 2h1.3c.2-.6.4-1.1.6-1.6.2-.8.4-1.4.6-2z"/></g><circle class="st13" cx="116.9" cy="39.8" r="2.2"/></svg>