<?xml version="1.0" encoding="utf-8"?>
<svg version="1.1" id="Layer_1" xmlns="http://www.w3.org/2000/svg" xmlns:xlink="http://www.w3.org/1999/xlink" x="0px" y="0px"
	 viewBox="0 0 864 319.5" style="enable-background:new 0 0 864 319.5;" xml:space="preserve">
<style type="text/css">
	.st0{fill:#FFFFFF;}
	.st1{fill:#2e1f53;}
</style>

    <g>
        <path class="st0" d="M211.9,5.4v14.4c0,0-25.7-9.6-42.4,7.8c-12.1,12.6-13.1,26.7-7.6,45.7c54.5,0,63.1,30.5,63.1,30.5l-5.5-35.1
            l17.2-20.9l0,0C236.6,23,216.2,6.6,211.9,5.4z"/>
    </g>
    <g>
        <circle class="st1" cx="216.7" cy="40.7" r="6.6"/>
    </g>
    <g>
        <g>
            <path class="st1" d="M225,103.7c0,0-8.3-41.9-62.8-30.5c-5.5-18.9-4.5-32.8,7.6-45.7c16.4-17.4,42.1-7.8,42.1-7.8V5.4
                c-9.1-4-17.7-4.8-27.2-4.8c-35.1,0-54.5,26.2-62.8,43.9L23.2,225.8l27.7-5.3L0,318.9l35.6-6.3l27.2-77.4
                C140,235.2,238.9,207.4,225,103.7z"/>
        </g>
    </g>
    <g>
        <polygon class="st1" points="258.3,68.7 236.6,47.7 219.5,68.7 	"/>
    </g>
    <g>
        <path class="st0" d="M75.7,212.7c0,0,2.5-0.5,7.1-1.5s10.8-2.5,18.4-4.5c3.8-1,7.8-2.3,12.1-3.8c4.3-1.5,8.8-3,13.1-5
            c4.5-1.8,9.1-4,13.6-6.6c4.5-2.5,8.8-5.3,12.9-8.6c1-0.8,2-1.5,3-2.5l3-2.5c1.8-1.8,3.8-3.5,5.5-5.5c1.8-1.8,3.3-3.8,4.8-5.8
            c0.8-1,1.5-2,2.3-3l1-1.5l1-1.5c0.5-1,1.3-2,1.8-3c0.5-1,1-2,1.8-3c0.3-0.5,0.5-1,0.8-1.5c0.3-0.5,0.5-1,0.8-1.5c0.5-1,1-2,1.3-3
            c0.8-2,1.5-4,2.3-6.1c0.5-2,1.3-4,1.8-5.8c0.5-1.8,0.8-3.8,1.3-5.3c0.3-1.8,0.5-3.3,0.8-5c0.3-1.5,0.5-3,0.5-4.3
            c0.3-1.3,0.3-2.5,0.5-3.8c0.3-4.5,0.3-7.1,0.3-7.1l4,0.3c0,0-0.3,2.8-0.5,7.3c-0.3,1.3-0.3,2.5-0.5,3.8c-0.3,1.5-0.3,3-0.8,4.5
            c-0.3,1.5-0.8,3.3-1,5c-0.5,1.8-1,3.5-1.5,5.5s-1.3,3.8-2,6.1c-0.8,2-1.5,4-2.5,6.3c-0.5,1-1,2-1.5,3c-0.3,0.5-0.5,1-0.8,1.5
            c-0.3,0.5-0.5,1-0.8,1.5c-0.5,1-1.3,2-1.8,3.3c-0.8,1-1.3,2-2,3c-0.3,0.5-0.8,1-1,1.5l-1,1.5c-0.8,1-1.5,2-2.3,3
            c-1.8,2-3.3,4-5.3,5.8c-1.8,2-3.8,3.5-5.8,5.5l-3,2.5c-1,0.8-2,1.5-3.3,2.3c-4.3,3-8.8,5.8-13.4,8.3c-4.5,2.3-9.3,4.5-13.9,6.3
            c-4.5,1.8-9.1,3.3-13.4,4.5c-4.3,1.3-8.3,2.5-12.4,3.3c-7.6,1.8-14.1,3.3-18.7,4C78.2,212.2,75.7,212.7,75.7,212.7z"/>
    </g>
    <path class="st1" d="M320.4,212.2h-22.2l-31.8-91.8h19.9l22.7,69.4l22.7-69.4h19.9l22.7,69.4l22.7-69.4H417l-31,91.8h-22.2
        l-21.7-62.8L320.4,212.2z"/>
    <path class="st1" d="M504.8,212.2h-17.7v-12.4c-7.6,9.1-17.7,13.6-30.5,13.6c-9.6,0-17.4-2.8-23.7-8.1s-9.3-12.6-9.3-21.7
        s3.3-15.9,10.1-20.2c6.6-4.5,15.6-6.8,27-6.8h25v-3.5c0-12.1-6.8-18.4-20.4-18.4c-8.6,0-17.4,3-26.5,9.3l-8.6-12.1
        c11.1-8.8,23.7-13.4,38.1-13.4c10.8,0,19.7,2.8,26.5,8.1c6.8,5.5,10.3,14.1,10.3,25.7v59.8H504.8z M485.4,177.9v-7.8h-21.7
        c-13.9,0-20.9,4.3-20.9,13.1c0,4.5,1.8,7.8,5.3,10.3c3.5,2.3,8.3,3.5,14.4,3.5s11.6-1.8,16.1-5.3C483.1,188.5,485.4,184,485.4,177.9
        z"/>
    <path class="st1" d="M609.7,120.4v80c0,16.1-4.3,28.5-13.1,36.6c-8.8,8.1-20.2,12.1-33.8,12.1c-13.9,0-26.2-4.3-37.3-12.9l9.1-14.6
        c9.1,6.8,17.9,10.1,27.2,10.1c9.1,0,16.4-2.3,21.7-7.1s8.1-12.4,8.1-22.7V190c-2.8,5.3-7.1,9.8-12.4,12.9
        c-5.3,3.3-11.4,4.8-17.9,4.8c-12.1,0-22.2-4.3-30-12.9s-11.9-19.2-11.9-31.8c0-12.6,4-23.2,11.9-31.8c7.8-8.6,17.9-12.9,30-12.9
        s21.9,5,29.5,15.1v-13.6h18.9V120.4z M538.1,162.8c0,7.6,2.3,14.1,7.1,19.4c4.5,5.5,10.8,8.1,18.9,8.1c7.8,0,14.4-2.5,19.2-7.8
        c4.8-5.3,7.3-11.9,7.3-19.7c0-7.8-2.5-14.6-7.3-19.9c-5-5.5-11.4-8.1-19.2-8.1c-7.8,0-14.1,2.8-18.7,8.6
        C540.3,148.7,538.1,155.2,538.1,162.8z"/>
    <path class="st1" d="M658.2,135.8v46.7c0,4.3,1.3,7.8,3.5,10.3c2.3,2.5,5.5,3.8,9.6,3.8c4,0,8.1-2,11.9-6.1l7.8,13.6
        c-6.8,6.1-14.4,9.1-22.5,9.1c-8.3,0-15.1-2.8-20.9-8.6c-5.8-5.8-8.8-13.4-8.8-23v-45.9h-11.6v-15.6h11.6V91.6h19.4v28.8h24.2V136
        h-24.2V135.8z"/>
    <path class="st1" d="M780.8,212.2h-17.7v-12.4c-7.6,9.1-17.7,13.6-30.5,13.6c-9.6,0-17.4-2.8-23.7-8.1s-9.3-12.6-9.3-21.7
        s3.3-15.9,10.1-20.2c6.6-4.5,15.6-6.8,27-6.8h25v-3.5c0-12.1-6.8-18.4-20.4-18.4c-8.6,0-17.4,3-26.5,9.3l-8.6-12.1
        c11.1-8.8,23.7-13.4,38.1-13.4c10.8,0,19.7,2.8,26.5,8.1c6.8,5.5,10.3,14.1,10.3,25.7v59.8H780.8z M761.3,177.9v-7.8h-21.7
        c-13.9,0-20.9,4.3-20.9,13.1c0,4.5,1.8,7.8,5.3,10.3c3.5,2.3,8.3,3.5,14.4,3.5c6.1,0,11.6-1.8,16.1-5.3
        C759.1,188.5,761.3,184,761.3,177.9z"/>
    <path class="st1" d="M805.5,102c-2.5-2.5-3.5-5.3-3.5-8.6c0-3.3,1.3-6.3,3.5-8.6c2.5-2.5,5.3-3.5,8.6-3.5c3.3,0,6.3,1.3,8.6,3.5
        c2.5,2.5,3.5,5.3,3.5,8.6c0,3.3-1.3,6.3-3.5,8.6c-2.3,2.3-5.3,3.5-8.6,3.5C810.8,105.8,808,104.5,805.5,102z M823.6,212.2h-19.4
        v-91.8h19.4V212.2z"/>
    <path class="st1" d="M864,212.2h-19.4V84.1H864V212.2z"/>
</svg>
